<svg width="32" height="32" viewBox="0 0 32 32" fill="none" xmlns="http://www.w3.org/2000/svg">
<rect width="32" height="32" fill="white"/>
<path d="M21.52 27.64C23.52 27.64 25.1067 26.8267 26.28 25.2C27.4533 23.5733 28.2133 21.6 28.56 19.28H31.04C30.6667 22.16 29.72 24.6133 28.2 26.64C27.3467 27.76 26.3733 28.6 25.28 29.16C24.2133 29.6933 23.0267 30.04 21.72 30.2C20.44 30.36 18.76 30.44 16.68 30.44C13.7467 30.44 11.36 30.16 9.52 29.6C7.70667 29.0133 6.14667 28.0667 4.84 26.76C2.28 24.2 1 20.68 1 16.2C1 11.48 2.14667 7.97333 4.44 5.68C5.93333 4.18667 7.6 3.2 9.44 2.72C11.28 2.24 13.6933 2 16.68 2C19.4267 2 21.6533 2.2 23.36 2.6C25.0933 2.97333 26.5067 3.78667 27.6 5.04C28.5067 6.08 29.2133 7.33333 29.72 8.8C30.2267 10.2667 30.52 11.72 30.6 13.16H28.32C28.2133 11.96 27.92 10.7333 27.44 9.48C26.9867 8.2 26.2667 7.10667 25.28 6.2C24.2933 5.26667 23.04 4.8 21.52 4.8C20.08 4.8 18.92 5.42667 18.04 6.68C17.2667 7.66667 16.68 9.12 16.28 11.04C15.9867 12.5067 15.84 14.2267 15.84 16.2C15.84 19.32 16.2133 21.84 16.96 23.76C17.92 26.3467 19.44 27.64 21.52 27.64Z" fill="black"/>
</svg>
